<svg id="visual" viewBox="0 0 900 450" width="900" height="450" xmlns="http://www.w3.org/2000/svg" xmlns:xlink="http://www.w3.org/1999/xlink" version="1.1"><rect x="0" y="0" width="900" height="450" fill="#931C1C"></rect><path d="M0 307L129 264L257 264L386 262L514 309L643 270L771 319L900 279L900 451L771 451L643 451L514 451L386 451L257 451L129 451L0 451Z" fill="#f5730a"></path><path d="M0 344L129 339L257 320L386 314L514 343L643 321L771 317L900 326L900 451L771 451L643 451L514 451L386 451L257 451L129 451L0 451Z" fill="#da5b09"></path><path d="M0 351L129 372L257 358L386 378L514 376L643 374L771 337L900 348L900 451L771 451L643 451L514 451L386 451L257 451L129 451L0 451Z" fill="#be4407"></path><path d="M0 407L129 375L257 360L386 393L514 401L643 395L771 391L900 367L900 451L771 451L643 451L514 451L386 451L257 451L129 451L0 451Z" fill="#a32d04"></path><path d="M0 400L129 400L257 410L386 403L514 417L643 409L771 420L900 422L900 451L771 451L643 451L514 451L386 451L257 451L129 451L0 451Z" fill="#871400"></path></svg>